#!OML:ASF H:\Dans Jumps\Project 1\Capture day 1\Session 1\subject.ASF
:FULLY-SPECIFIED
:DEGREES
386
root 0.0198792 23.8892 -8.02131 8.63537 1.21965 -0.975398
lowerback 8.63753 0.226712 -1.80223
upperback 6.12289 0.180358 1.54071
thorax 1.49367 0.00765774 2.591
lowerneck -10.6907 -0.246653 0.00446149
upperneck 29.2363 -0.412706 0.213345
head 11.2197 -0.156928 0.0259274
rclavicle 3.18055e-015 -3.18055e-015
rhumerus -43.8538 5.21844 -83.1472
rradius 68.4396
rwrist 16.0974
rhand -27.929 -27.2975
rfingers 7.12502
rthumb -1.31738 -57.2732
lclavicle 3.18055e-015 -3.18055e-015
lhumerus -52.4077 -20.1987 91.2086
lradius 74.9694
lwrist 44.4793
lhand -34.4357 -16.1643
lfingers 7.12502
lthumb -7.60013 13.6792
rfemur -28.975 -11.2881 21.7218
rtibia 31.0802
rfoot 18.0034 -3.64167
rtoes 15.5696
lfemur -28.2806 10.8145 -18.3593
ltibia 28.9222
lfoot 19.5973 -4.04165
ltoes 6.77698
387
root 0.0225552 23.6976 -7.88469 8.42327 1.11171 -1.00822
lowerback 8.02637 0.234163 -1.7058
upperback 5.94796 0.203834 1.48452
thorax 1.6454 0.0232832 2.47681
lowerneck -10.4188 -0.224093 -0.00360143
upperneck 29.5602 -0.390783 0.252139
head 11.2898 -0.143024 0.0446266
rclavicle 7.95139e-016 5.96354e-015
rhumerus -44.4668 5.9806 -83.0298
rradius 69.3105
rwrist 16.1222
rhand -28.0765 -27.2899
rfingers 7.12502
rthumb -1.4598 -57.2647
lclavicle 7.95139e-016 5.96354e-015
lhumerus -52.9714 -20.6944 90.6566
lradius 76.1777
lwrist 44.9529
lhand -34.356 -16.0385
lfingers 7.12502
lthumb -7.52317 13.8078
rfemur -28.1325 -11.1537 21.6041
rtibia 29.9577
rfoot 18.2725 -3.90493
rtoes 15.6552
lfemur -27.2668 10.6303 -18.1691
ltibia 27.6947
lfoot 19.8776 -3.93005
ltoes 6.84115
388
root 0.0256341 23.4933 -7.74418 8.2408 1.00605 -1.03932
lowerback 7.34756 0.252857 -1.59173
upperback 5.76346 0.243126 1.41479
thorax 1.82502 0.0474009 2.33857
lowerneck -10.1783 -0.218798 0.0212474
upperneck 29.8956 -0.401991 0.294623
head 11.3713 -0.139815 0.0548682
rclavicle -1.44119e-015 -1.35174e-014
rhumerus -45.1038 6.69361 -82.8756
rradius 70.2431
rwrist 16.1769
rhand -28.1725 -27.3375
rfingers 7.12502
rthumb -1.55249 -57.3116
lclavicle -1.44119e-015 -1.35174e-014
lhumerus -53.552 -21.2707 90.0584
lradius 77.4073
lwrist 45.3477
lhand -34.3063 -15.9614
lfingers 7.12502
lthumb -7.47527 13.8865
rfemur -27.3313 -11.0256 21.4884
rtibia 28.9537
rfoot 18.6129 -4.18458
rtoes 15.991
lfemur -26.2639 10.4564 -17.9947
ltibia 26.4813
lfoot 20.2326 -3.79016
ltoes 7.02546
389
root 0.0290516 23.2764 -7.60029 8.0847 0.904611 -1.06959
lowerback 6.59611 0.273739 -1.45742
upperback 5.57346 0.28597 1.33034
thorax 2.04072 0.0738965 2.17481
lowerneck -9.97195 -0.213527 0.083185
upperneck 30.2569 -0.422223 0.338571
head 11.4704 -0.136135 0.0581208
rclavicle 4.67144e-015 9.44227e-015
rhumerus -45.7556 7.39506 -82.6992
rradius 71.2428
rwrist 16.2441
rhand -28.2663 -27.3862
rfingers 7.12502
rthumb -1.64308 -57.3596
lclavicle 4.67144e-015 9.44227e-015
lhumerus -54.1277 -21.8904 89.393
lradius 78.654
lwrist 45.6512
lhand -34.275 -15.8935
lfingers 7.12502
lthumb -7.44499 13.9555
rfemur -26.5635 -10.8835 21.3677
rtibia 28.0699
rfoot 19.0119 -4.49479
rtoes 16.6025
lfemur -25.2764 10.2803 -17.8333
ltibia 25.306
lfoot 20.6095 -3.56496
ltoes 7.41112
390
root 0.0325837 23.0468 -7.45402 7.94954 0.797848 -1.11541
lowerback 5.78896 0.321449 -1.27663
upperback 5.40564 0.365461 1.21561
thorax 2.31098 0.120128 1.95395
lowerneck -9.89586 -0.227217 0.239174
upperneck 30.6556 -0.491998 0.385171
head 11.6116 -0.143023 0.0396738
rclavicle -1.2921e-015 -2.18663e-015
rhumerus -46.3748 7.99442 -82.5041
rradius 72.3157
rwrist 16.3272
rhand -28.3452 -27.4226
rfingers 7.12502
rthumb -1.71934 -57.3954
lclavicle -1.2921e-015 -2.18663e-015
lhumerus -54.6178 -22.6335 88.6161
lradius 79.9163
lwrist 45.9052
lhand -34.2754 -15.8315
lfingers 7.12502
lthumb -7.44538 14.0175
rfemur -25.8198 -10.6857 21.2527
rtibia 27.2983
rfoot 19.4439 -4.83292
rtoes 17.4131
lfemur -24.3138 10.1081 -17.6675
ltibia 24.1977
lfoot 20.9472 -3.24169
ltoes 7.919
391
root 0.0363999 22.8047 -7.3063 7.8201 0.70391 -1.17613
lowerback 4.95261 0.393497 -1.04433
upperback 5.26459 0.477264 1.0689
thorax 2.6272 0.184497 1.67293
lowerneck -9.94884 -0.26465 0.49714
upperneck 31.0752 -0.619479 0.42861
head 11.789 -0.163212 -0.0053269
rclavicle 6.95746e-016 4.17448e-015
rhumerus -46.9301 8.48172 -82.287
rradius 73.4404
rwrist 16.4156
rhand -28.3974 -27.4341
rfingers 7.12502
rthumb -1.7697 -57.4065
lclavicle 6.95746e-016 4.17448e-015
lhumerus -54.9857 -23.5005 87.7056
lradius 81.1878
lwrist 46.1651
lhand -34.2591 -15.8143
lfingers 7.12502
lthumb -7.4297 14.0352
rfemur -25.0773 -10.445 21.14
rtibia 26.6257
rfoot 19.8654 -5.17028
rtoes 18.3031
lfemur -23.3753 9.91979 -17.496
ltibia 23.1814
lfoot 21.2055 -2.82546
ltoes 8.49177
392
root 0.0402118 22.5501 -7.15822 7.68125 0.621696 -1.25738
lowerback 4.11254 0.286314 -0.997603
upperback 5.1516 0.339691 1.13581
thorax 2.98424 0.113852 1.7231
lowerneck -10.1181 -0.137247 0.323197
upperneck 31.5186 -0.400565 0.419998
head 12.0022 -0.0856718 0.049829
rclavicle -3.40419e-015 4.96962e-016
rhumerus -47.2753 9.7241 -81.8784
rradius 74.5903
rwrist 16.4053
rhand -28.4003 -27.4407
rfingers 7.12502
rthumb -1.77253 -57.4131
lclavicle -3.40419e-015 4.96962e-016
lhumerus -55.3043 -23.5991 86.8314
lradius 82.4699
lwrist 46.3817
lhand -34.2185 -15.7492
lfingers 7.12502
lthumb -7.39044 14.1017
rfemur -24.3163 -10.1408 21.0335
rtibia 26.0359
rfoot 20.2273 -5.49772
rtoes 19.1619
lfemur -22.4593 9.70609 -17.307
ltibia 22.2798
lfoot 21.3764 -2.34157
ltoes 9.06166
